<?xml version="1.0" encoding="UTF-8"?>
<svg id="Capa_1" data-name="Capa 1" xmlns="http://www.w3.org/2000/svg" viewBox="0 0 262.89 342.67">
  <defs>
    <style>
      .cls-1 {
        fill: #1d1d1b;
      }

      .cls-2 {
        fill: none;
        stroke: #1d1d1b;
        stroke-width: .56px;
      }

      .cls-2, .cls-3 {
        stroke-miterlimit: 10;
      }

      .cls-4 {
        fill: #da7a5e;
      }

      .cls-3 {
        fill: #0d2e43;
        stroke: #0d2e43;
        stroke-width: .43px;
      }

      .cls-5 {
        fill: #0f2f44;
      }
    </style>
  </defs>
  <path class="cls-5" d="M81.41,237.49c1.19.25,2.38.68,3.57,1.29.19.11.3.21.33.29.03.08.07.29.12.62l.5,4.94c0,.08-.08.13-.23.15-.15.01-.24-.02-.27-.1-1.27-4.63-4.13-6.94-8.56-6.94-2.33,0-4.38.51-6.15,1.54-1.77,1.03-3.14,2.49-4.11,4.38-.97,1.9-1.45,4.11-1.45,6.63s.53,4.62,1.6,6.63c1.07,2.01,2.51,3.59,4.32,4.76,1.81,1.16,3.79,1.75,5.92,1.75,2.27,0,4.11-.55,5.53-1.66,1.41-1.11,2.49-2.8,3.24-5.07,0-.06.07-.08.21-.08.19,0,.29.04.29.12l-.42,4.57c-.03.33-.07.54-.12.62-.06.08-.17.18-.33.29-1.44.69-2.79,1.18-4.05,1.45-1.26.28-2.71.42-4.34.42-2.91,0-5.51-.57-7.79-1.72-2.29-1.15-4.07-2.76-5.34-4.84-1.27-2.08-1.91-4.46-1.91-7.15s.65-4.91,1.95-6.92c1.3-2.01,3.1-3.57,5.38-4.67s4.85-1.66,7.71-1.66c1.75,0,3.21.12,4.4.37Z"/>
  <path class="cls-5" d="M99.42,262.24c-2.01-1.21-3.56-2.84-4.65-4.9-1.09-2.06-1.64-4.31-1.64-6.75,0-2.85.72-5.3,2.16-7.33s3.29-3.57,5.55-4.59c2.26-1.02,4.56-1.54,6.92-1.54,2.63,0,4.94.62,6.94,1.85,2,1.23,3.53,2.86,4.59,4.88s1.6,4.17,1.6,6.44c0,2.52-.66,4.83-1.99,6.94-1.33,2.11-3.11,3.77-5.34,4.99-2.23,1.22-4.65,1.83-7.25,1.83s-4.87-.6-6.88-1.81ZM112.85,261.8c1.51-.91,2.7-2.26,3.57-4.03.87-1.77,1.31-3.88,1.31-6.32,0-2.6-.49-4.92-1.46-6.94s-2.33-3.6-4.09-4.74c-1.76-1.14-3.82-1.7-6.17-1.7-3.05,0-5.43.98-7.15,2.95-1.72,1.97-2.58,4.67-2.58,8.1,0,2.6.48,4.98,1.45,7.13.97,2.15,2.33,3.84,4.07,5.07,1.75,1.23,3.73,1.85,5.94,1.85,1.88,0,3.58-.46,5.09-1.37Z"/>
  <path class="cls-5" d="M154.04,263.3c0,.17-.03.25-.08.25h-5.36c-.69,0-1.99-1.15-3.91-3.45-1.91-2.3-4.18-5.46-6.81-9.47-.75.17-1.52.25-2.33.25-.17,0-.79-.04-1.87-.12v9.43c0,.86.08,1.48.25,1.87.17.39.49.65.98.79.48.14,1.25.21,2.31.21.08,0,.12.08.12.25s-.04.25-.12.25c-.86,0-1.54-.01-2.04-.04l-2.87-.04-2.83.04c-.5.03-1.21.04-2.12.04-.06,0-.08-.08-.08-.25s.03-.25.08-.25c1.05,0,1.83-.07,2.33-.21.5-.14.84-.41,1.02-.81.18-.4.27-1.02.27-1.85v-19.24c0-.83-.08-1.44-.25-1.83-.17-.39-.49-.66-.98-.81-.49-.15-1.25-.23-2.31-.23-.08,0-.12-.08-.12-.25s.04-.25.12-.25l2.04.04c1.16.06,2.1.08,2.83.08.61,0,1.18-.01,1.7-.04.53-.03.97-.06,1.33-.08,1.02-.08,1.95-.12,2.78-.12,2.19,0,3.88.5,5.07,1.5s1.79,2.33,1.79,3.99c0,1.5-.44,2.85-1.31,4.05s-2.03,2.15-3.47,2.85c2.33,3.35,4.29,5.98,5.88,7.87,1.59,1.9,3.01,3.26,4.24,4.09s2.45,1.25,3.64,1.25c.05,0,.08.08.08.25ZM136.14,249.92c2.16,0,3.7-.47,4.63-1.41.93-.94,1.39-2.4,1.39-4.36,0-2.16-.48-3.71-1.43-4.65-.96-.94-2.35-1.41-4.18-1.41-1.08,0-1.83.19-2.24.58-.42.39-.62,1.18-.62,2.37v8.73c.69.11,1.51.17,2.45.17Z"/>
  <path class="cls-5" d="M185.42,263.3c0,.17-.06.25-.17.25-.53,0-1.34-.03-2.45-.08s-1.91-.08-2.41-.08c-.61,0-1.38.03-2.33.08-.89.06-1.57.08-2.04.08-.11,0-.17-.08-.17-.25s.06-.25.17-.25c1.02,0,1.77-.1,2.24-.29.47-.19.71-.53.71-1,0-.39-.18-.98-.54-1.79l-3.7-7.85h-9.89l-2.62,6.15c-.39.94-.58,1.7-.58,2.29,0,.86.34,1.49,1.02,1.89.68.4,1.7.6,3.05.6.14,0,.21.08.21.25s-.07.25-.21.25c-.5,0-1.22-.03-2.16-.08-1.05-.06-1.97-.08-2.74-.08-.72,0-1.55.03-2.49.08-.83.06-1.52.08-2.08.08-.14,0-.21-.08-.21-.25s.07-.25.21-.25c.77,0,1.43-.15,1.97-.44.54-.29,1.05-.8,1.54-1.54.48-.73,1.02-1.79,1.6-3.18l8.77-20.69c.06-.08.15-.12.29-.12s.22.04.25.12l9.81,20.65c.94,2.05,1.75,3.43,2.41,4.13.67.71,1.46,1.06,2.37,1.06.11,0,.17.08.17.25ZM165.18,251.29h9.18l-4.86-10.26-4.32,10.26Z"/>
  <path class="cls-5" d="M195.72,260.01c0,.8.08,1.39.25,1.75.17.36.47.6.91.73.44.12,1.16.19,2.16.19h4.53c1.58,0,2.84-.48,3.78-1.45.94-.97,1.56-2.31,1.87-4.03,0-.08.08-.12.23-.1.15.01.23.06.23.15-.25,2.3-.37,4.2-.37,5.69,0,.22-.04.38-.12.48-.08.1-.25.15-.5.15h-19.2c-.06,0-.08-.08-.08-.25s.03-.25.08-.25c1.05,0,1.82-.07,2.31-.21.48-.14.81-.41.98-.81s.25-1.02.25-1.85v-19.24c0-.83-.08-1.44-.25-1.83-.17-.39-.49-.66-.98-.81-.49-.15-1.25-.23-2.31-.23-.06,0-.08-.08-.08-.25s.03-.25.08-.25l2.04.04c1.16.06,2.11.08,2.83.08.78,0,1.75-.03,2.91-.08l2-.04c.08,0,.12.08.12.25s-.04.25-.12.25c-1.03,0-1.78.08-2.26.23-.49.15-.82.43-1,.83-.18.4-.27,1.02-.27,1.85v19.03Z"/>
  <path class="cls-5" d="M81.34,272.99c1.19.25,2.38.68,3.57,1.29.19.11.3.21.33.29.03.08.07.29.12.62l.5,4.94c0,.08-.08.13-.23.15-.15.01-.24-.02-.27-.1-1.27-4.63-4.13-6.94-8.56-6.94-2.33,0-4.38.51-6.15,1.54-1.77,1.03-3.14,2.49-4.11,4.38-.97,1.9-1.45,4.11-1.45,6.63s.53,4.62,1.6,6.63c1.07,2.01,2.51,3.59,4.32,4.76,1.81,1.16,3.79,1.75,5.92,1.75,2.27,0,4.11-.55,5.53-1.66,1.41-1.11,2.49-2.8,3.24-5.07,0-.05.07-.08.21-.08.19,0,.29.04.29.12l-.42,4.57c-.03.33-.07.54-.12.62-.06.08-.17.18-.33.29-1.44.69-2.79,1.18-4.05,1.46-1.26.28-2.71.42-4.34.42-2.91,0-5.51-.57-7.79-1.72-2.29-1.15-4.07-2.76-5.34-4.84-1.28-2.08-1.91-4.46-1.91-7.15s.65-4.91,1.95-6.92c1.3-2.01,3.1-3.57,5.38-4.67,2.29-1.11,4.86-1.66,7.71-1.66,1.75,0,3.21.12,4.4.37Z"/>
  <path class="cls-5" d="M99.35,297.73c-2.01-1.21-3.56-2.84-4.65-4.9-1.09-2.06-1.64-4.31-1.64-6.75,0-2.85.72-5.3,2.16-7.33,1.44-2.04,3.29-3.57,5.55-4.59,2.26-1.02,4.56-1.54,6.92-1.54,2.63,0,4.95.62,6.94,1.85,1.99,1.23,3.52,2.86,4.59,4.88,1.07,2.02,1.6,4.17,1.6,6.44,0,2.52-.67,4.83-1.99,6.94-1.33,2.11-3.11,3.77-5.34,4.99-2.23,1.22-4.65,1.83-7.25,1.83s-4.87-.6-6.88-1.81ZM112.78,297.3c1.51-.91,2.7-2.26,3.57-4.03.87-1.77,1.31-3.88,1.31-6.32,0-2.6-.48-4.92-1.45-6.94s-2.33-3.6-4.09-4.74c-1.76-1.14-3.82-1.7-6.17-1.7-3.05,0-5.43.98-7.15,2.95-1.72,1.97-2.58,4.67-2.58,8.1,0,2.6.48,4.98,1.45,7.13.97,2.15,2.33,3.84,4.07,5.07s3.73,1.85,5.94,1.85c1.88,0,3.58-.46,5.09-1.37Z"/>
  <path class="cls-5" d="M156.23,298.79c0,.17-.05.25-.17.25-.53,0-1.34-.03-2.45-.08-1.11-.06-1.91-.08-2.41-.08-.61,0-1.38.03-2.33.08-.89.06-1.57.08-2.04.08-.11,0-.17-.08-.17-.25s.05-.25.17-.25c1.03,0,1.77-.1,2.24-.29.47-.19.71-.53.71-1,0-.39-.18-.98-.54-1.79l-3.7-7.85h-9.89l-2.62,6.15c-.39.94-.58,1.7-.58,2.29,0,.86.34,1.49,1.02,1.89.68.4,1.7.6,3.05.6.14,0,.21.08.21.25s-.07.25-.21.25c-.5,0-1.22-.03-2.16-.08-1.05-.06-1.97-.08-2.74-.08-.72,0-1.55.03-2.49.08-.83.06-1.52.08-2.08.08-.14,0-.21-.08-.21-.25s.07-.25.21-.25c.78,0,1.43-.15,1.97-.44.54-.29,1.05-.8,1.54-1.54.48-.73,1.02-1.79,1.6-3.18l8.77-20.69c.05-.08.15-.12.29-.12s.22.04.25.12l9.81,20.65c.94,2.05,1.74,3.43,2.41,4.13.67.71,1.46,1.06,2.37,1.06.11,0,.17.08.17.25ZM135.99,286.78h9.18l-4.86-10.26-4.32,10.26Z"/>
  <path class="cls-5" d="M167.66,280.76c.53.8,1.17,1.47,1.93,2.02.76.54,1.81,1.21,3.14,2.01,1.47.89,2.6,1.62,3.39,2.2.79.58,1.47,1.32,2.04,2.22s.85,1.97.85,3.22c0,1.33-.33,2.54-1,3.62-.66,1.08-1.64,1.93-2.93,2.56-1.29.62-2.83.94-4.63.94-2.13,0-4.09-.49-5.86-1.46-.14-.08-.23-.18-.27-.29-.04-.11-.08-.28-.1-.5l-.54-5.65c-.03-.11.04-.18.19-.21.15-.03.24.01.27.12.44,1.99,1.27,3.71,2.47,5.15,1.21,1.44,2.8,2.16,4.8,2.16,1.38,0,2.56-.38,3.51-1.14.96-.76,1.43-1.97,1.43-3.64,0-1.25-.28-2.33-.83-3.24-.55-.92-1.23-1.67-2.01-2.26-.79-.6-1.86-1.29-3.22-2.1-1.33-.8-2.38-1.5-3.14-2.08s-1.41-1.32-1.93-2.2c-.53-.89-.79-1.93-.79-3.12,0-1.38.37-2.57,1.1-3.55.73-.98,1.69-1.72,2.87-2.2,1.18-.48,2.43-.73,3.76-.73,1.63,0,3.25.33,4.86,1,.42.14.62.37.62.71l.29,4.78c0,.11-.07.17-.21.17s-.22-.06-.25-.17c-.22-1.44-.82-2.78-1.79-4.01-.97-1.23-2.37-1.85-4.2-1.85-1.55,0-2.71.45-3.47,1.35-.76.9-1.14,2.01-1.14,3.34,0,1.08.26,2.02.79,2.83Z"/>
  <path class="cls-5" d="M188.84,275.15c-.87.89-1.5,2.4-1.89,4.53,0,.06-.08.08-.23.08s-.23-.03-.23-.08c.11-1,.24-2.3.37-3.91.14-1.61.21-2.81.21-3.61,0-.14.08-.21.23-.21s.23.07.23.21c0,.61.75.91,2.24.91,2.35.08,5.14.12,8.35.12,1.63,0,3.37-.03,5.19-.08l2.83-.04c1,0,1.74-.07,2.22-.21.48-.14.8-.42.93-.83.03-.11.11-.17.25-.17s.21.06.21.17c-.08.8-.17,2.02-.25,3.66-.08,1.63-.12,2.96-.12,3.99,0,.06-.08.08-.25.08s-.25-.03-.25-.08c-.08-2.16-.53-3.68-1.33-4.55-.8-.87-2.13-1.31-3.99-1.31-1.25,0-2.13.06-2.66.17-.53.11-.89.35-1.08.71-.19.36-.29.97-.29,1.83v19.16c0,.86.1,1.48.29,1.87.19.39.57.65,1.12.79.55.14,1.43.21,2.62.21.08,0,.12.08.12.25s-.04.25-.12.25c-.91,0-1.65-.01-2.2-.04l-3.24-.04-3.12.04c-.55.03-1.32.04-2.29.04-.06,0-.08-.08-.08-.25s.03-.25.08-.25c1.19,0,2.06-.07,2.62-.21.55-.14.94-.41,1.14-.81.21-.4.31-1.02.31-1.85v-19.24c0-.86-.1-1.46-.29-1.81-.19-.35-.55-.57-1.08-.67-.53-.1-1.41-.14-2.66-.14-1.75,0-3.05.44-3.93,1.33Z"/>
  <g>
    <line class="cls-2" x1="180.78" y1="193.16" x2="180.78" y2="192.6"/>
    <g>
      <rect class="cls-1" x="192.24" y="86.9" width=".57" height="105.7"/>
      <rect class="cls-1" x="62.31" y="204.07" width="29.11" height=".56"/>
      <rect class="cls-1" x="180.85" y="204.07" width="29.04" height=".56"/>
      <rect class="cls-1" x="62.31" y="192.32" width="29.11" height=".56"/>
      <rect class="cls-1" x="180.85" y="192.32" width="29.04" height=".56"/>
      <path class="cls-1" d="M180.54,145.46v13.89c.17-.09.36-.17.54-.24v-13.65s-.54,0-.54,0ZM181.1,86.9c-.6-23.78-9.17-50.73-45-50.73s-44.44,30.57-44.99,50.73c-.03.94-.04,1.86-.04,2.76v17.58h.57v-17.58c-.01-.89,0-1.82.03-2.76.55-19.94,7.49-50.17,44.43-50.17s43.84,26.64,44.44,50.17c.02.93.03,1.85.03,2.76l-.02,29.59h.56l.02-29.59c0-.91-.01-1.83-.03-2.76ZM181.06,192.32v-15.23c-.18-.08-.37-.16-.55-.24v16.03s.06,0,.06,0v11.19h-88.87v-19.31h-.56v19.87h89.99v-12.31h-.07ZM180.54,145.46v13.89c.17-.09.36-.17.54-.24v-13.65s-.54,0-.54,0ZM180.54,137.2v22.15s-.01,3.77-.01,3.77c.18-.17.37-.32.55-.45v-17.21s0-8.26,0-8.26h-.55Z"/>
      <g>
        <rect class="cls-1" x="79.39" y="89.66" width=".56" height="40.48"/>
        <rect class="cls-1" x="79.39" y="171.33" width=".56" height="21.27"/>
      </g>
      <path class="cls-1" d="M192.81,89.66h-.56c0-20.11-4.16-36.02-12.36-47.28-9.44-12.96-24.17-19.54-43.78-19.54-48.85,0-56.14,41.86-56.14,66.82h-.56c0-19.76,4.45-36.23,12.85-47.61,9.69-13.12,24.44-19.77,43.85-19.77,19.8,0,34.69,6.65,44.24,19.77,8.27,11.36,12.47,27.38,12.47,47.61Z"/>
    </g>
    <g>
      <path class="cls-3" d="M202.96,219.78v.37l-2.62-.22c-4.82-.45-8.67.46-13.23,2.01-2.76.94-6.1.22-9-.72l-7.83-2.56c-1.13-.37-2.33-.5-3.49-.64-1.59-.2-4.77.25-6.4.79l-4.63,1.53c-5.56,1.84-9.84,3.28-16.08,2.7-2.67-.25-5.17-.9-7.68-1.78s-4.8-1.38-7.44-1.11l-8.87.91-3.36.11-2.24-.09c-5.6-.24-11.97-3.68-17.13-1.37-4.62,2.07-8.14-.5-12.93-.64-2.8-.08-5.31.86-7.89,1.71-1.32.43-2.82-.12-4.13-.32l-2.48-.31v-.37l5.26.89c1.85.34,5.88-3.34,14.27-1.1,2.16.58,4.57.99,6.7.24s4-1.39,6.3-1.15c2.06.21,4.07.61,6.1,1.12,3.54.89,7.51,1.38,11.13,1.06l1.68-.15,5.02-.57,2.6-.22,2.27-.04c4.07-.07,8.85,3.65,17.59,2.93,3.92-.32,7.56-1.39,11.22-2.74,5.17-1.9,9.72-3.3,15.11-1.54l7.14,2.33c1.61.53,3.28.96,4.96,1.14l1.58.17c1.6.17,6.28-2.13,11.26-2.52h4.45s2.79.14,2.79.14Z"/>
      <path class="cls-3" d="M193.6,226.5v.32l-3.55.47-3.39.6-4.92.02-1.3-.13c-3.96-.38-7.74-1.24-11.59-2.18-3.38-.83-6.19-1.46-9.73-1.05-1.65.19-3.22.51-4.78,1.02l-6.77,2.2c-2.62.85-6.92,1.23-9.62.93l-1.44-.16c-3.36-.57-6.59-1.27-10-1.5-2.08-.14-4.1-.07-6.21-.03l-1.29.13-7.38,1c-3.41.46-8.29-.54-11.74-1.61-4.25-1.31-8.55-1.65-12.95-1l-6.43.95-1.43.14-1.8.14-2.39.05v-.32l3.54-.03,1.27-.13,8.02-1.14,2.25-.2c3.17-.28,6.98.41,10.11,1.34,3.59,1.07,7.66,1.92,11.38,1.57l1.29-.12,5.32-.76,1.57-.17,1.8-.14c1.19-.09,2.45-.09,3.64,0l1.64.11c3.16.22,6.18.85,9.3,1.39l2.77.31c7.34.83,14.03-3.63,20.34-4.21,3.44-.31,5.89.1,9.14.89,5.02,1.22,14.22,3.25,18.75,2.41l4.97-.92,1.6-.19Z"/>
      <path class="cls-3" d="M208.28,212.38v.4c-1.82.16-3.83.51-5.66-.15-5.49-1.97-8.25,1.46-11.97,1.48l-8.37.02-1.83-.14c-3.72-.29-7.3-.88-10.95-1.66-3.44-.73-6.61-.33-9.66,1.46-4.16,2.44-7.41,3.77-12.38,3.35-1.98-.17-3.83-.82-5.67-1.5l-5.96-2.22c-3.32-1.23-6.61-.97-9.98-.07l-6.01,1.6c-3.25.87-6.49.85-9.79.22-2.56-.49-4.99-.68-7.62-.59l-1.6-.17c-3.25,0-6.33-.09-9.47-.97s-6.28-1.55-9.59-1.78c-2.64-.18-5.27-.27-7.93-.03l-2.19.2-7.64.78-3.79.16v-.4c1.26,0,2.62.06,3.95-.08l9.25-.93,2.03-.14c4.86-.34,10.66.43,15.38,1.75,2.45.69,4.8,1.05,7.32,1.11l6.27.15,2.22.16,5.41.74,2.38.18,2.59-.19c3.98-.3,8.93-2.56,12.21-2.75,2.71-.16,5.25.11,7.75,1.08l4.91,1.89c6.62,2.55,11.1,2.03,17.23-1.5,1.74-1,3.52-1.9,5.54-2.04,4.92-.33,9.68,1.5,14.8,1.8l3,.18,2.02.12h5.29c4.25-.02,6.55-3.1,12.01-1.85l2.65.61c.65.15,1.38.04,2.05-.03l1.79-.27Z"/>
    </g>
    <g>
      <path class="cls-4" d="M85.62,144.5c-.31-.04-.57-.23-.72-.5l-.18-.35c-.22-.42-.09-.93.3-1.2l.31-.21c.16-.11.35-.17.53-.17.23,0,.46.09.64.26l.2.19c.37.35.39.92.06,1.3l-.33.37c-.18.2-.44.32-.7.32-.04,0-.08,0-.12,0Z"/>
      <path class="cls-4" d="M85.86,143.01l-.31.21.18.35.33-.37-.2-.19Z"/>
      <path class="cls-4" d="M85.62,144.5c-.31-.04-.57-.23-.72-.5l-.18-.35c-.22-.42-.09-.93.3-1.2l.31-.21c.16-.11.35-.17.53-.17.23,0,.46.09.64.26l.2.19c.37.35.39.92.06,1.3l-.33.37c-.18.2-.44.32-.7.32-.04,0-.08,0-.12,0Z"/>
      <path class="cls-4" d="M85.86,143.01l-.31.21.18.35.33-.37-.2-.19Z"/>
      <path class="cls-4" d="M85.62,144.5c-.31-.04-.57-.23-.72-.5l-.18-.35c-.22-.42-.09-.93.3-1.2l.31-.21c.16-.11.35-.17.53-.17.23,0,.46.09.64.26l.2.19c.37.35.39.92.06,1.3l-.33.37c-.18.2-.44.32-.7.32-.04,0-.08,0-.12,0Z"/>
      <polygon class="cls-4" points="86.06 143.2 85.73 143.57 85.55 143.22 85.86 143.01 86.06 143.2"/>
      <path class="cls-4" d="M177.88,129.89c-3.27,2.93-7.24,4.52-11.54,2.6-.17-4.11,3.12-10.67,6.45-12.86,3.65-2.41,7.42-5.64,4.77-7.97-2.45.11-3.52,3.59-5.68,3.26-.54-.08-1.41-1.44-1.32-2.01l1.38-7.84c.08-.5-.62-1.73-1.1-1.77-.41-.03-1.35.54-1.59.99-3.66,6.56.27,14.03-5.5,20.17-1.22-.81-2.18-2.23-2.31-3.55l-.54-5.21c-.06-.6-.93-1.67-1.51-1.74-2.08-.25-2.82,3.75-1.19,8.33,1.11,3.14,2.58,6.45,1.59,9.85-.67,2.29-2.99,3.8-4.31,5.68l-3.15,4.53c-.52.75-2.27-.05-2.58-.96l-1.72-5.01c-.21-.64-1.52-1.56-2.15-1.36-2.32.73-1.58,5.45.87,9.25,1.71,2.65,2.66,5.31,2.92,8.47.44,5.28-.02,10.54-3.01,15.2-1.61-3.27-2.42-6.57-3.18-10.16-.24-1.15-1.89-3.04-2.94-1.94-1.9,1.96-.87,5.39.14,7.67,2.71,6.1,2.32,14.43-2.43,18.42l-4.09-6.17c-4-6.03-5.88-13.22-5.48-20.66.39-6.98,2.18-13.99,5.63-20.03,1.52-2.63,3.13-4.81,4.27-7.7,1.26-3.24,3.65-6.27,6.4-8.36,3.86-2.92,6.21-6.81,8.31-11.13,1.36-2.78,2.95-6.17,1.19-7.11-3.69-2.01-7.09,13.96-12.02,12.5-.55-.16-1.1-1.36-1.09-2.07l.12-13.29c.48-5.98,2.3-11.02,4.86-16.3,1.27-2.63,1.29-5.97,1.8-8.81l1.16-6.44c.1-.57-.74-1.84-1.27-2.02-.54-.18-2.05.56-2.18,1.15l-1.57,6.75c-.61,2.59-1.33,5.02-3.15,7.08-2.23-.84-2.96-2.96-3.2-5.16l-.47-4.38c-.05-.54-1.22-1.6-1.75-1.45-2.76.75-2.27,8.5,1.08,14.26,1.76,3.03,1.84,6.81,1.11,10.08l-1.2,5.4c-.66,2.95-2.05,6.08-1.78,9.18.77,8.95.51,13.48-5.68,21.25-.72-.89-1.03-1.74-1.14-2.75-.44-4.09-1.7-7.76-4.12-10.93-3.09-4.05-3.03-9.01-1.15-13.61,2.55-6.23,2.19-14.65-.76-14.61-.5.01-1.57.91-1.6,1.44l-.22,3.82c-.15,2.73-.21,5.18-2.55,7.18l-4.31-5.73c-2.24-2.97-2.18-9.85-6.11-10.21-2.39-.22-1.42,6.58,1.92,11.72l5.02,7.72c.97,1.46,1.05,3.46.32,5.06-2.23-1.26-4.54-2.46-6.35-4.24l-6.67-6.55c-.42-.42-2.11-1.01-2.54-.59-.65.63-.58,2.87,0,3.47l5.88,6.04c1.9,1.95,3.4,3.92,5.73,5.36,7.28,4.47,9.45,9.8,10.99,17.92,1.05,5.56,1.45,10.87-.49,16.38-.83,2.35-.88,5.02-.77,7.56l.41,9.59c.08,1.94-7.19-2.06-7.22-10.47,0-2.04-.42-4.88-1.88-6.39-9.33-9.66-2.08-16.97-4.54-25.38-.15-.51-1.2-1.33-1.73-1.35-.54-.01-1.62,1.01-1.68,1.55l-.42,5.22c-.05.64-.96,1.66-1.51,2.11l-5.66-4.53c-2.62-2.11-2.28-8.92-4.64-12.89-.33-.55-1.65-1.08-2.12-.76-.41.27-1.1,1.53-.97,2.08l1.88,7.23c.31,1.19.34,2.52-.24,3.47-4.16,0-7.72-5.11-9.19-2.43-1.57,2.87,5.75,6.31,10.51,7.74,2.25.69,4.22,2.13,6.07,3.49,6.95,5.14,2.94,10.3,7.08,15.74,1.55,2.05,2.23,4.27,1.61,6.79-5.07-1.14-9.74-2.75-13.94-5.35-2.87-1.78-4.62-4.3-5.87-7.32-1.6-3.91-5.22-7.66-6.76-6.18-2.91,2.79,5.43,8.48,4.54,11.96-4.15,1.02-8.73-2.06-9.72.58-.25.66.66,2.13,1.43,2.41,5.98,2.07,10.56.58,14.49,3.08,4.48,2.83,8.84,5.28,13.63,7.43,5.31,2.41,9.32,6.09,12.03,11.26,1.95,3.73,9.84,5.16,10.77,14.07l-7.83-4.34c-2.06-1.14-3.79-1.8-6.29-1.87-4.78-.11-9.53-3.77-10.18-8.57-.31-2.26-.23-4.27-1.66-6.15-.41-.54-1.71-.91-2.27-.67-2.36,1.02.85,5.13-.96,8.53-7.61-1.33-10.53-7.96-18.45-10.46-.59-.19-1.96.38-2.25.9-.94,1.72,1.33,3.36,3.97,4.63,3.26,1.56,8.45,4.68,8.41,6.43,0,.31-.64,1.1-.98,1.18l-4.84,1.1c-.69.16-1.75,1.18-1.68,1.78.23,2.04,4.47,2.17,8.49.67,5.57-2.07,10.29.17,14.88,4.05-.47.8-1.39,1.65-2.24,1.84l-4.32.98c-.54.13-1.34,1.18-1.37,1.7-.1,2.18,4.67,2.57,9.08.37,2.18-1.08,4.67-2.17,7.23-1.7,6.2,1.15,14.39,6.62,13.62,11.88-.07.5-.23,1.01-.48,1.5-.39.77-1.01,1.38-1.73,1.86-2.57,1.74-6.41,1.96-5.36,3.21.23.29,1.08.8,1.48.8l4.35.05,2.92.03c2.35.48,4.33,1.22,6.59,1.21.21,0,.44-.01.65-.02l9.81-.66c.64-.04,1.76-1.46,1.66-2.07-1.16-1.7-3.06-3.88-3.66-5.88-.12-.38-.21-.76-.28-1.14,1.38-.8,2.79-1.43,4.14-1.85,2.49-.75,5.09.03,7.38.86,4.63,1.68,9.32.74,8.97-1.4-.08-.52-1-1.48-1.55-1.54l-4.41-.47c-.87-.1-1.88-.84-2.43-1.57,4.12-4.38,8.54-7.15,14.32-5.73,4.16,1.02,8.35.41,8.35-1.63.01-.62-1.17-1.51-1.87-1.58l-4.94-.54c-.35-.04-1.07-.75-1.1-1.06-.24-1.73,4.55-5.43,7.61-7.36,2.48-1.55,4.55-3.45,3.42-5.05-.35-.48-1.77-.89-2.34-.64-7.59,3.39-9.72,10.31-17.13,12.5-2.19-3.18.53-7.63-1.93-8.37-.58-.17-1.83.34-2.18.92-1.2,2.04-.89,4.02-.94,6.29-.1,4.84-4.39,9.03-9.13,9.68-1.26.18-2.31.49-3.28.93.27-.68.58-1.36.92-2.02,3.77-7.35,7.62-14.54,9.17-22.83,1.7-9.15-1.01-17.63,6.19-23.97,5.19-4.59,11.8-.65,15.88-3.94,2.63-2.13,5.03-4.09,8.18-5.43,1.24-.54,2.47-1.5,2.97-2.88.71-2.02-3.63-3.5-9.4,1.67ZM85.73,143.57l-.18-.35.31-.21.2.19-.33.37Z"/>
    </g>
    <polyline class="cls-2" points="192.24 86.9 192.21 86.9 181.1 86.9 180.54 86.9"/>
    <polyline class="cls-2" points="91.67 86.9 91.11 86.9 79.98 86.9 79.42 86.9 79.39 86.9"/>
  </g>
  <g>
    <path class="cls-5" d="M64.33,314.34h-2.02v-5.75h2.14c.66,0,1.22.11,1.69.34.47.23.83.56,1.07.98s.37.94.37,1.54-.13,1.12-.38,1.55-.62.76-1.11.99-1.07.35-1.76.35ZM62.94,313.87h1.35c.59,0,1.09-.1,1.49-.29.4-.2.7-.47.9-.83s.3-.79.3-1.29c0-.5-.1-.92-.29-1.28-.19-.36-.48-.63-.86-.82-.38-.19-.85-.29-1.41-.29h-1.47v4.81Z"/>
    <path class="cls-5" d="M75.77,311.47c0,.6-.13,1.12-.38,1.56-.26.44-.61.79-1.05,1.03-.45.24-.96.36-1.54.36s-1.09-.12-1.54-.36c-.45-.24-.8-.58-1.05-1.03-.25-.44-.38-.96-.38-1.56s.13-1.12.38-1.56c.25-.44.61-.79,1.05-1.03.45-.24.96-.36,1.54-.36s1.09.12,1.54.36c.45.24.8.58,1.05,1.03.26.44.38.96.38,1.56ZM75.15,311.47c0-.51-.1-.96-.31-1.32-.21-.37-.49-.65-.84-.84-.36-.19-.76-.29-1.21-.29s-.85.1-1.21.29c-.36.2-.64.48-.85.84-.21.37-.31.81-.31,1.33s.1.96.31,1.32c.21.37.49.65.84.84.36.2.76.29,1.21.29s.86-.1,1.22-.29c.36-.19.64-.48.85-.84.21-.37.31-.81.31-1.32Z"/>
    <path class="cls-5" d="M78.3,308.59h.73l2.5,5.01h.06l2.5-5.01h.73v5.75h-.59v-4.64h-.05l-2.32,4.64h-.57l-2.32-4.64h-.05v4.64h-.59v-5.75Z"/>
    <path class="cls-5" d="M88.28,308.59v5.75h-.63v-5.75h.63Z"/>
    <path class="cls-5" d="M96.49,308.59v5.75h-.61l-4.07-4.81h-.05v4.81h-.63v-5.75h.61l4.08,4.82h.05v-4.82h.62Z"/>
    <path class="cls-5" d="M99.96,308.59v5.75h-.63v-5.75h.63Z"/>
    <path class="cls-5" d="M108.2,310.39h-.63c-.05-.2-.13-.38-.25-.55-.12-.17-.28-.31-.46-.44-.18-.13-.39-.22-.63-.29s-.49-.1-.76-.1c-.43,0-.83.09-1.19.28-.36.19-.64.47-.86.83-.21.37-.32.81-.32,1.34s.11.98.32,1.35c.21.36.5.64.86.83.36.19.75.28,1.19.28.27,0,.52-.04.76-.1.23-.07.44-.17.63-.29s.34-.27.46-.44c.12-.17.21-.35.25-.55h.63c-.06.26-.16.51-.31.74s-.35.43-.59.6-.51.3-.82.4c-.31.1-.64.14-1.01.14-.58,0-1.09-.12-1.54-.36-.45-.24-.8-.58-1.05-1.03s-.38-.96-.38-1.56.13-1.12.38-1.56.61-.78,1.05-1.03c.45-.24.96-.36,1.54-.36.37,0,.71.05,1.01.14s.58.23.82.4c.24.17.43.37.59.6.15.23.26.47.31.74Z"/>
    <path class="cls-5" d="M110.7,314.34h-.66l2.51-5.75h.67l2.51,5.75h-.66l-2.16-5.07h-.05l-2.16,5.07ZM111.17,312.14h3.42v.47h-3.42v-.47Z"/>
    <path class="cls-5" d="M123.28,308.59v5.75h-.61l-4.07-4.81h-.05v4.81h-.63v-5.75h.61l4.08,4.82h.05v-4.82h.62Z"/>
    <path class="cls-5" d="M131.82,314.34h-2.02v-5.75h2.14c.66,0,1.22.11,1.69.34.47.23.83.56,1.07.98.25.43.37.94.37,1.54s-.13,1.12-.38,1.55-.62.76-1.11.99-1.07.35-1.76.35ZM130.43,313.87h1.35c.59,0,1.09-.1,1.49-.29.4-.2.7-.47.9-.83s.3-.79.3-1.29c0-.5-.1-.92-.29-1.28s-.48-.63-.86-.82c-.38-.19-.85-.29-1.41-.29h-1.47v4.81Z"/>
    <path class="cls-5" d="M137.61,314.34v-5.75h4v.47h-3.37v2.16h3.15v.47h-3.15v2.17h3.43v.47h-4.06Z"/>
    <path class="cls-5" d="M147.98,310.03c-.04-.32-.21-.57-.51-.76-.3-.19-.68-.28-1.13-.28-.32,0-.6.05-.85.14-.24.09-.43.22-.57.38-.14.16-.21.35-.21.55,0,.15.04.29.12.4.08.11.18.21.32.29.13.08.28.15.44.21.16.06.33.11.49.15l.73.17c.22.05.44.11.66.19.22.08.42.18.6.3.18.12.33.26.44.43s.17.38.17.62c0,.31-.1.58-.29.83-.19.24-.46.44-.82.58-.36.14-.78.21-1.28.21-.47,0-.88-.07-1.22-.19-.35-.13-.62-.31-.81-.54s-.31-.5-.33-.8h.65c.02.23.11.42.27.58.16.16.36.28.61.36.25.08.53.12.84.12.34,0,.65-.05.92-.14.27-.1.48-.23.63-.4s.23-.38.23-.6c0-.2-.06-.36-.18-.49-.12-.13-.29-.24-.51-.33-.22-.09-.47-.17-.75-.24l-.82-.2c-.54-.14-.96-.32-1.26-.56s-.45-.54-.45-.91c0-.31.1-.58.3-.82.2-.24.47-.42.81-.55.34-.13.72-.2,1.15-.2s.81.07,1.14.2c.33.13.59.31.79.54.19.23.3.49.31.78h-.61Z"/>
    <path class="cls-5" d="M151.84,308.59v5.75h-.63v-5.75h.63Z"/>
    <path class="cls-5" d="M159.45,310.39c-.06-.19-.15-.37-.28-.54-.12-.17-.27-.31-.45-.44s-.38-.23-.62-.3c-.23-.07-.49-.11-.77-.11-.45,0-.85.1-1.2.29-.35.2-.63.48-.84.84-.21.37-.31.81-.31,1.33s.1.96.31,1.32c.21.37.49.65.85.84.36.2.77.29,1.24.29.42,0,.8-.08,1.12-.24.33-.16.58-.38.76-.67.18-.29.27-.64.27-1.04l.2.05h-2.21v-.47h2.62v.47c0,.49-.12.91-.36,1.27s-.56.63-.98.83c-.42.19-.89.29-1.43.29-.6,0-1.13-.12-1.58-.36-.45-.24-.8-.58-1.05-1.03-.25-.44-.38-.96-.38-1.56,0-.45.07-.86.21-1.22.14-.36.35-.67.61-.93.26-.26.58-.46.94-.59.36-.14.76-.21,1.2-.21.38,0,.72.05,1.03.15.31.1.59.24.83.41.24.17.43.37.59.6.15.23.26.47.31.72h-.65Z"/>
    <path class="cls-5" d="M168.08,308.59v5.75h-.61l-4.07-4.81h-.05v4.81h-.63v-5.75h.61l4.08,4.82h.05v-4.82h.62Z"/>
    <path class="cls-5" d="M174.6,314.34v-5.75h.63v2.64h3.91v-2.64h.63v5.75h-.63v-2.64h-3.91v2.64h-.63Z"/>
    <path class="cls-5" d="M188.26,311.47c0,.6-.13,1.12-.38,1.56-.26.44-.61.79-1.05,1.03-.45.24-.96.36-1.54.36s-1.09-.12-1.54-.36c-.45-.24-.8-.58-1.05-1.03-.25-.44-.38-.96-.38-1.56s.13-1.12.38-1.56c.25-.44.61-.79,1.05-1.03.45-.24.96-.36,1.54-.36s1.09.12,1.54.36c.45.24.8.58,1.05,1.03.26.44.38.96.38,1.56ZM187.64,311.47c0-.51-.1-.96-.31-1.32s-.49-.65-.84-.84c-.36-.19-.76-.29-1.21-.29s-.85.1-1.21.29c-.36.2-.64.48-.85.84-.21.37-.31.81-.31,1.33s.1.96.31,1.32c.21.37.49.65.84.84.36.2.76.29,1.21.29s.86-.1,1.22-.29c.36-.19.64-.48.85-.84s.31-.81.31-1.32Z"/>
    <path class="cls-5" d="M195.38,308.59h.63v3.81c0,.39-.11.74-.33,1.05-.22.31-.53.55-.92.73-.39.18-.85.26-1.36.26s-.97-.09-1.36-.27c-.39-.18-.7-.42-.92-.73s-.33-.66-.33-1.05v-3.81h.63v3.77c0,.3.08.58.25.82.16.24.39.43.69.56.3.14.65.21,1.04.21s.75-.07,1.05-.21c.3-.14.53-.32.69-.56.16-.24.24-.51.24-.82v-3.77Z"/>
    <path class="cls-5" d="M202.59,310.03c-.04-.32-.21-.57-.51-.76-.3-.19-.68-.28-1.13-.28-.32,0-.6.05-.85.14-.24.09-.43.22-.57.38-.14.16-.21.35-.21.55,0,.15.04.29.12.4.08.11.18.21.32.29.13.08.28.15.44.21.16.06.33.11.49.15l.73.17c.22.05.44.11.66.19.22.08.42.18.6.3.18.12.33.26.44.43s.17.38.17.62c0,.31-.1.58-.29.83-.19.24-.46.44-.82.58-.36.14-.78.21-1.28.21-.47,0-.88-.07-1.22-.19-.35-.13-.62-.31-.81-.54s-.31-.5-.33-.8h.65c.02.23.11.42.27.58.16.16.36.28.61.36.25.08.53.12.84.12.34,0,.65-.05.92-.14.27-.1.48-.23.63-.4s.23-.38.23-.6c0-.2-.06-.36-.18-.49-.12-.13-.29-.24-.51-.33-.22-.09-.47-.17-.75-.24l-.82-.2c-.54-.14-.96-.32-1.26-.56s-.45-.54-.45-.91c0-.31.1-.58.3-.82.2-.24.47-.42.81-.55.34-.13.72-.2,1.15-.2s.81.07,1.14.2c.33.13.59.31.79.54.19.23.3.49.31.78h-.61Z"/>
    <path class="cls-5" d="M205.82,314.34v-5.75h4v.47h-3.37v2.16h3.15v.47h-3.15v2.17h3.43v.47h-4.06Z"/>
  </g>
</svg>