<?xml version="1.0" encoding="UTF-8"?>
<svg id="Capa_1" data-name="Capa 1" xmlns="http://www.w3.org/2000/svg" viewBox="0 0 292.6 133.41">
  <defs>
    <style>
      .cls-1 {
        fill: #b17f4a;
      }

      .cls-2 {
        fill: #ce5f45;
      }
    </style>
  </defs>
  <g>
    <path class="cls-1" d="M128.37,27.76c1.35.28,2.7.77,4.05,1.46.22.13.35.23.38.33.03.1.08.33.14.71l.56,5.61c0,.09-.09.15-.26.16-.17.02-.27-.02-.31-.12-1.44-5.25-4.68-7.87-9.71-7.87-2.64,0-4.96.58-6.97,1.74-2.01,1.16-3.57,2.82-4.66,4.97-1.1,2.15-1.65,4.66-1.65,7.51s.6,5.24,1.81,7.51c1.21,2.28,2.84,4.08,4.9,5.39,2.06,1.32,4.29,1.98,6.71,1.98,2.58,0,4.66-.63,6.27-1.88,1.6-1.26,2.83-3.17,3.67-5.75,0-.06.08-.09.24-.09.22,0,.33.05.33.14l-.47,5.18c-.03.38-.08.61-.14.71-.06.09-.19.2-.38.33-1.63.79-3.16,1.34-4.59,1.65-1.43.31-3.07.47-4.92.47-3.3,0-6.24-.65-8.83-1.96-2.59-1.3-4.61-3.13-6.05-5.49-1.44-2.36-2.17-5.06-2.17-8.1s.74-5.57,2.21-7.84c1.48-2.28,3.51-4.04,6.1-5.3s5.5-1.88,8.74-1.88c1.98,0,3.64.14,4.99.42Z"/>
    <path class="cls-1" d="M148.8,55.82c-2.28-1.37-4.04-3.22-5.28-5.56-1.24-2.34-1.86-4.89-1.86-7.66,0-3.23.82-6.01,2.45-8.32s3.73-4.04,6.29-5.21c2.56-1.16,5.17-1.74,7.84-1.74,2.98,0,5.61.7,7.87,2.1,2.26,1.4,4,3.24,5.21,5.54s1.81,4.73,1.81,7.3c0,2.86-.75,5.48-2.26,7.87-1.51,2.39-3.53,4.27-6.05,5.65-2.53,1.38-5.27,2.07-8.22,2.07s-5.52-.68-7.8-2.05ZM164.01,55.32c1.71-1.04,3.06-2.56,4.05-4.57.99-2.01,1.48-4.4,1.48-7.16,0-2.95-.55-5.58-1.65-7.87s-2.65-4.08-4.64-5.37c-2-1.29-4.33-1.93-7-1.93-3.45,0-6.16,1.12-8.1,3.35-1.95,2.23-2.92,5.29-2.92,9.19,0,2.95.55,5.65,1.65,8.08,1.1,2.43,2.64,4.35,4.62,5.75,1.98,1.4,4.22,2.1,6.74,2.1,2.13,0,4.06-.52,5.77-1.55Z"/>
    <path class="cls-1" d="M210.73,57.02c0,.19-.03.28-.09.28h-6.08c-.78,0-2.26-1.3-4.43-3.91-2.17-2.61-4.74-6.19-7.73-10.74-.85.19-1.73.28-2.64.28-.19,0-.9-.05-2.12-.14v10.69c0,.97.09,1.68.28,2.12.19.44.56.74,1.11.89.55.16,1.42.24,2.62.24.09,0,.14.09.14.28s-.05.28-.14.28c-.97,0-1.74-.02-2.31-.05l-3.25-.05-3.2.05c-.57.03-1.37.05-2.4.05-.06,0-.09-.09-.09-.28s.03-.28.09-.28c1.19,0,2.07-.08,2.64-.24.57-.16.95-.46,1.15-.92.2-.46.31-1.15.31-2.1v-21.81c0-.94-.09-1.63-.28-2.07-.19-.44-.56-.75-1.11-.92-.55-.17-1.42-.26-2.61-.26-.1,0-.14-.09-.14-.28s.05-.28.14-.28l2.31.05c1.32.06,2.39.09,3.2.09.69,0,1.33-.02,1.93-.05.6-.03,1.1-.06,1.51-.09,1.16-.09,2.21-.14,3.16-.14,2.48,0,4.4.57,5.75,1.7s2.03,2.64,2.03,4.52c0,1.7-.49,3.23-1.48,4.59s-2.3,2.44-3.93,3.23c2.64,3.8,4.86,6.78,6.67,8.93,1.81,2.15,3.41,3.7,4.81,4.64s2.77,1.41,4.12,1.41c.06,0,.09.09.09.28ZM190.42,41.85c2.45,0,4.2-.53,5.25-1.6,1.05-1.07,1.58-2.72,1.58-4.95,0-2.45-.54-4.21-1.63-5.28-1.09-1.07-2.66-1.6-4.74-1.6-1.22,0-2.07.22-2.54.66-.47.44-.71,1.34-.71,2.69v9.89c.79.13,1.71.19,2.78.19Z"/>
    <path class="cls-1" d="M246.3,57.02c0,.19-.06.28-.19.28-.6,0-1.52-.03-2.78-.09s-2.17-.09-2.73-.09c-.69,0-1.57.03-2.64.09-1.01.06-1.77.09-2.31.09-.13,0-.19-.09-.19-.28s.06-.28.19-.28c1.16,0,2.01-.11,2.54-.33.53-.22.8-.6.8-1.13,0-.44-.2-1.12-.61-2.03l-4.19-8.9h-11.21l-2.97,6.97c-.44,1.07-.66,1.93-.66,2.59,0,.97.38,1.69,1.15,2.14.77.46,1.92.68,3.46.68.16,0,.24.09.24.28s-.08.28-.24.28c-.57,0-1.38-.03-2.45-.09-1.19-.06-2.23-.09-3.11-.09-.82,0-1.76.03-2.83.09-.94.06-1.73.09-2.36.09-.16,0-.24-.09-.24-.28s.08-.28.24-.28c.88,0,1.63-.16,2.24-.49.61-.33,1.19-.91,1.74-1.74.55-.83,1.15-2.03,1.81-3.6l9.94-23.46c.06-.09.17-.14.33-.14s.25.05.28.14l11.12,23.42c1.07,2.33,1.98,3.89,2.73,4.69.75.8,1.65,1.2,2.69,1.2.13,0,.19.09.19.28ZM223.35,43.4h10.41l-5.51-11.64-4.9,11.64Z"/>
    <path class="cls-1" d="M257.98,53.3c0,.91.09,1.57.28,1.98.19.41.53.68,1.04.82.5.14,1.32.21,2.45.21h5.14c1.79,0,3.22-.55,4.29-1.65,1.07-1.1,1.77-2.62,2.12-4.57,0-.1.09-.13.26-.12.17.02.26.07.26.16-.28,2.61-.42,4.76-.42,6.45,0,.25-.05.43-.14.54-.09.11-.28.16-.56.16h-21.77c-.06,0-.09-.09-.09-.28s.03-.28.09-.28c1.19,0,2.07-.08,2.62-.24.55-.16.92-.46,1.11-.92s.28-1.15.28-2.1v-21.81c0-.94-.09-1.63-.28-2.07-.19-.44-.56-.75-1.11-.92-.55-.17-1.42-.26-2.62-.26-.06,0-.09-.09-.09-.28s.03-.28.09-.28l2.31.05c1.32.06,2.39.09,3.2.09.88,0,1.98-.03,3.3-.09l2.26-.05c.09,0,.14.09.14.28s-.05.28-.14.28c-1.16,0-2.02.09-2.57.26-.55.17-.93.49-1.13.94-.2.46-.31,1.15-.31,2.1v21.58Z"/>
    <path class="cls-1" d="M128.29,68c1.35.28,2.7.77,4.05,1.46.22.13.35.23.38.33.03.1.08.33.14.71l.57,5.61c0,.09-.09.15-.26.16-.17.02-.28-.02-.31-.12-1.44-5.25-4.68-7.87-9.71-7.87-2.64,0-4.96.58-6.97,1.74-2.01,1.16-3.56,2.82-4.66,4.97-1.1,2.15-1.65,4.66-1.65,7.51s.6,5.24,1.81,7.51c1.21,2.28,2.84,4.08,4.9,5.39,2.06,1.32,4.3,1.98,6.71,1.98,2.57,0,4.66-.63,6.27-1.88,1.6-1.26,2.83-3.17,3.67-5.75,0-.06.08-.09.23-.09.22,0,.33.05.33.14l-.47,5.18c-.03.38-.08.61-.14.71-.06.09-.19.2-.38.33-1.63.79-3.16,1.34-4.59,1.65-1.43.31-3.07.47-4.92.47-3.3,0-6.24-.65-8.83-1.96-2.59-1.3-4.61-3.13-6.05-5.49-1.45-2.36-2.17-5.06-2.17-8.1s.74-5.57,2.21-7.84c1.48-2.28,3.51-4.04,6.1-5.3,2.59-1.26,5.51-1.88,8.74-1.88,1.98,0,3.64.14,4.99.42Z"/>
    <path class="cls-1" d="M148.72,96.06c-2.28-1.37-4.04-3.22-5.28-5.56-1.24-2.34-1.86-4.89-1.86-7.66,0-3.23.82-6.01,2.45-8.32,1.63-2.31,3.73-4.04,6.29-5.21,2.56-1.16,5.18-1.74,7.84-1.74,2.98,0,5.61.7,7.87,2.1,2.26,1.4,4,3.24,5.21,5.54,1.21,2.29,1.81,4.73,1.81,7.3,0,2.86-.75,5.48-2.26,7.87-1.51,2.39-3.53,4.27-6.05,5.65-2.53,1.38-5.27,2.07-8.22,2.07s-5.52-.68-7.8-2.05ZM163.93,95.57c1.71-1.04,3.06-2.56,4.05-4.57.99-2.01,1.48-4.4,1.48-7.16,0-2.95-.55-5.58-1.65-7.87s-2.65-4.08-4.64-5.37c-2-1.29-4.33-1.93-7-1.93-3.46,0-6.16,1.12-8.1,3.35-1.95,2.23-2.92,5.29-2.92,9.19,0,2.95.55,5.65,1.65,8.08,1.1,2.43,2.64,4.35,4.62,5.75s4.22,2.1,6.74,2.1c2.14,0,4.06-.52,5.77-1.55Z"/>
    <path class="cls-1" d="M213.2,97.26c0,.19-.06.28-.19.28-.6,0-1.52-.03-2.78-.09-1.26-.06-2.17-.09-2.73-.09-.69,0-1.57.03-2.64.09-1.01.06-1.78.09-2.31.09-.13,0-.19-.09-.19-.28s.06-.28.19-.28c1.16,0,2.01-.11,2.54-.33.53-.22.8-.6.8-1.13,0-.44-.21-1.11-.61-2.03l-4.19-8.9h-11.21l-2.97,6.97c-.44,1.07-.66,1.93-.66,2.59,0,.97.38,1.69,1.15,2.14.77.46,1.92.68,3.46.68.16,0,.23.09.23.28s-.08.28-.23.28c-.57,0-1.38-.03-2.45-.09-1.19-.06-2.23-.09-3.11-.09-.82,0-1.76.03-2.83.09-.94.06-1.73.09-2.36.09-.16,0-.23-.09-.23-.28s.08-.28.23-.28c.88,0,1.63-.16,2.24-.49.61-.33,1.19-.91,1.74-1.74.55-.83,1.15-2.03,1.81-3.6l9.94-23.46c.06-.09.17-.14.33-.14s.25.05.28.14l11.12,23.42c1.07,2.32,1.98,3.89,2.73,4.69.76.8,1.65,1.2,2.69,1.2.13,0,.19.09.19.28ZM190.26,83.65h10.41l-5.51-11.64-4.9,11.64Z"/>
    <path class="cls-1" d="M226.17,76.81c.6.91,1.33,1.67,2.19,2.29.86.61,2.05,1.37,3.56,2.28,1.67,1.01,2.95,1.84,3.84,2.5.9.66,1.67,1.5,2.31,2.52s.97,2.24.97,3.65c0,1.51-.38,2.87-1.13,4.1-.75,1.23-1.86,2.19-3.32,2.9-1.46.71-3.21,1.06-5.25,1.06-2.42,0-4.63-.55-6.64-1.65-.16-.09-.26-.2-.31-.33-.05-.13-.09-.31-.12-.56l-.61-6.41c-.03-.13.04-.2.21-.24.17-.03.27.02.31.14.5,2.26,1.44,4.21,2.8,5.84,1.37,1.63,3.18,2.45,5.44,2.45,1.57,0,2.9-.43,3.98-1.3,1.08-.86,1.63-2.24,1.63-4.12,0-1.41-.31-2.64-.94-3.67-.63-1.04-1.39-1.89-2.28-2.57-.9-.68-2.11-1.47-3.65-2.38-1.51-.91-2.69-1.7-3.56-2.36s-1.59-1.49-2.19-2.5c-.6-1.01-.9-2.18-.9-3.53,0-1.57.42-2.91,1.25-4.03.83-1.11,1.92-1.95,3.25-2.5,1.33-.55,2.76-.82,4.26-.82,1.85,0,3.69.38,5.51,1.13.47.16.71.42.71.8l.33,5.42c0,.13-.08.19-.23.19s-.25-.06-.28-.19c-.25-1.63-.93-3.15-2.03-4.55-1.1-1.4-2.69-2.1-4.76-2.1-1.76,0-3.07.51-3.93,1.53-.86,1.02-1.3,2.28-1.3,3.79,0,1.22.3,2.29.89,3.2Z"/>
    <path class="cls-1" d="M250.17,70.45c-.99,1.01-1.7,2.72-2.14,5.14,0,.06-.09.09-.26.09s-.26-.03-.26-.09c.13-1.13.27-2.61.42-4.43.16-1.82.24-3.19.24-4.1,0-.16.09-.24.26-.24s.26.08.26.24c0,.69.85,1.04,2.54,1.04,2.67.09,5.83.14,9.47.14,1.85,0,3.82-.03,5.89-.09l3.2-.05c1.13,0,1.97-.08,2.52-.24.55-.16.9-.47,1.06-.94.03-.13.13-.19.28-.19s.24.06.24.19c-.09.91-.19,2.29-.28,4.15-.09,1.85-.14,3.36-.14,4.52,0,.06-.09.09-.28.09s-.28-.03-.28-.09c-.09-2.45-.6-4.17-1.51-5.16-.91-.99-2.42-1.48-4.52-1.48-1.41,0-2.42.06-3.02.19-.6.13-1.01.39-1.22.8-.22.41-.33,1.1-.33,2.07v21.72c0,.97.11,1.68.33,2.12.22.44.64.74,1.27.9.63.16,1.62.23,2.97.23.09,0,.14.09.14.28s-.05.28-.14.28c-1.04,0-1.87-.02-2.5-.05l-3.67-.05-3.53.05c-.63.03-1.49.05-2.59.05-.06,0-.1-.09-.1-.28s.03-.28.1-.28c1.35,0,2.34-.08,2.97-.23.63-.16,1.06-.46,1.3-.92.24-.46.35-1.15.35-2.1v-21.81c0-.97-.11-1.66-.33-2.05-.22-.39-.63-.64-1.23-.75-.6-.11-1.6-.16-3.02-.16-1.98,0-3.46.5-4.45,1.51Z"/>
    <g>
      <path class="cls-1" d="M109.01,114.89h-2.29v-6.52h2.43c.74,0,1.38.13,1.91.39.53.26.94.63,1.22,1.11s.42,1.06.42,1.74-.14,1.27-.43,1.76-.71.86-1.26,1.13-1.22.39-2,.39ZM107.43,114.36h1.53c.67,0,1.23-.11,1.69-.33.45-.22.79-.54,1.02-.95s.34-.9.34-1.46c0-.56-.11-1.05-.33-1.45-.22-.41-.55-.72-.98-.93-.43-.22-.96-.32-1.6-.32h-1.67v5.45Z"/>
      <path class="cls-1" d="M121.97,111.63c0,.68-.14,1.27-.43,1.77-.29.5-.69.89-1.2,1.16-.51.28-1.09.41-1.75.41s-1.24-.14-1.75-.41c-.51-.27-.91-.66-1.19-1.16-.29-.5-.43-1.09-.43-1.77s.14-1.27.43-1.77c.29-.5.69-.89,1.2-1.17.51-.27,1.09-.41,1.75-.41s1.24.14,1.75.41c.51.28.91.66,1.2,1.17.29.5.43,1.09.43,1.77ZM121.28,111.63c0-.58-.12-1.08-.35-1.5-.23-.42-.55-.74-.96-.96-.4-.22-.86-.33-1.38-.33s-.97.11-1.37.33c-.4.22-.72.54-.96.95-.23.42-.35.92-.35,1.5s.12,1.08.35,1.5c.23.42.55.74.96.96.4.22.86.33,1.38.33s.97-.11,1.38-.33c.41-.22.72-.54.96-.96.23-.42.35-.92.35-1.5Z"/>
      <path class="cls-1" d="M124.84,108.37h.82l2.83,5.68h.07l2.83-5.68h.82v6.52h-.67v-5.26h-.06l-2.63,5.26h-.65l-2.63-5.26h-.06v5.26h-.67v-6.52Z"/>
      <path class="cls-1" d="M136.16,108.37v6.52h-.71v-6.52h.71Z"/>
      <path class="cls-1" d="M145.47,108.37v6.52h-.69l-4.61-5.46h-.06v5.46h-.71v-6.52h.69l4.63,5.47h.06v-5.47h.7Z"/>
      <path class="cls-1" d="M149.4,108.37v6.52h-.71v-6.52h.71Z"/>
      <path class="cls-1" d="M158.74,110.41h-.72c-.05-.22-.15-.43-.29-.62-.14-.19-.31-.36-.52-.5-.21-.14-.44-.25-.71-.33s-.55-.12-.86-.12c-.49,0-.94.11-1.35.32-.41.21-.73.53-.97.94-.24.42-.36.92-.36,1.52s.12,1.11.36,1.53c.24.41.57.73.97.94.41.21.85.32,1.35.32.31,0,.59-.04.86-.12.26-.08.5-.19.71-.33s.38-.31.52-.5c.14-.19.23-.4.29-.62h.72c-.06.3-.18.58-.36.84s-.4.48-.66.68-.58.34-.92.45c-.35.11-.73.16-1.15.16-.66,0-1.24-.14-1.75-.41-.51-.27-.91-.66-1.2-1.16s-.43-1.09-.43-1.77.14-1.27.43-1.77.69-.89,1.2-1.16c.51-.27,1.09-.41,1.75-.41.42,0,.8.05,1.15.16s.66.26.92.45c.27.19.49.42.66.68.17.26.29.54.36.84Z"/>
      <path class="cls-1" d="M161.58,114.89h-.75l2.84-6.52h.76l2.84,6.52h-.75l-2.45-5.75h-.05l-2.45,5.75ZM162.12,112.39h3.87v.53h-3.87v-.53Z"/>
      <path class="cls-1" d="M175.85,108.37v6.52h-.69l-4.61-5.46h-.06v5.46h-.71v-6.52h.69l4.63,5.47h.06v-5.47h.7Z"/>
      <path class="cls-1" d="M185.53,114.89h-2.29v-6.52h2.43c.74,0,1.38.13,1.91.39.53.26.94.63,1.22,1.11.28.48.42,1.06.42,1.74s-.14,1.27-.43,1.76-.71.86-1.26,1.13-1.22.39-2,.39ZM183.95,114.36h1.53c.67,0,1.23-.11,1.69-.33.45-.22.79-.54,1.02-.95s.34-.9.34-1.46c0-.56-.11-1.05-.33-1.45s-.55-.72-.98-.93c-.43-.22-.96-.32-1.6-.32h-1.67v5.45Z"/>
      <path class="cls-1" d="M192.09,114.89v-6.52h4.53v.53h-3.82v2.45h3.58v.54h-3.58v2.46h3.89v.53h-4.61Z"/>
      <path class="cls-1" d="M203.85,110c-.04-.36-.23-.65-.58-.87-.34-.21-.77-.32-1.28-.32-.36,0-.68.05-.96.16-.28.1-.49.25-.65.43-.16.18-.23.39-.23.63,0,.17.04.32.13.45.09.13.21.24.36.33.15.09.32.17.5.24.18.07.37.12.56.17l.82.2c.25.06.5.13.75.22.25.09.48.2.68.34.21.14.37.3.5.49s.19.43.19.7c0,.35-.11.66-.32.94-.22.28-.53.5-.93.66-.4.16-.89.24-1.45.24-.53,0-.99-.07-1.38-.22-.39-.15-.7-.35-.92-.61s-.35-.56-.38-.91h.73c.02.26.13.47.31.65.18.18.41.31.69.41.28.09.6.14.95.14.39,0,.74-.05,1.04-.16.3-.11.54-.26.72-.46s.26-.43.26-.69c0-.22-.07-.41-.21-.56-.14-.15-.33-.28-.57-.38-.24-.1-.53-.19-.85-.27l-.93-.23c-.61-.15-1.09-.36-1.43-.63s-.51-.61-.51-1.03c0-.35.11-.66.34-.92.23-.27.53-.47.92-.62.39-.15.82-.22,1.3-.22s.92.07,1.29.22c.37.15.67.35.89.61.22.26.34.56.35.89h-.69Z"/>
      <path class="cls-1" d="M208.23,108.37v6.52h-.71v-6.52h.71Z"/>
      <path class="cls-1" d="M216.85,110.41c-.07-.22-.17-.42-.31-.61-.14-.19-.31-.36-.51-.5s-.43-.26-.7-.34c-.26-.08-.56-.12-.88-.12-.51,0-.96.11-1.37.33-.4.22-.72.54-.95.95-.23.42-.35.92-.35,1.5s.12,1.08.35,1.5c.23.42.55.74.96.96.41.22.88.33,1.4.33.48,0,.91-.09,1.27-.27.37-.18.66-.43.86-.76.21-.33.31-.73.3-1.18l.23.06h-2.5v-.53h2.97v.53c0,.56-.14,1.04-.4,1.44s-.64.72-1.11.94c-.47.22-1.01.33-1.62.33-.68,0-1.28-.14-1.79-.41-.51-.27-.91-.66-1.19-1.16-.28-.5-.43-1.09-.43-1.77,0-.51.08-.97.24-1.39.16-.41.39-.76.69-1.06.3-.29.65-.52,1.06-.67.41-.16.86-.23,1.36-.23.43,0,.82.06,1.17.17.35.11.67.27.94.46.27.2.49.42.67.68.17.26.29.53.35.82h-.73Z"/>
      <path class="cls-1" d="M226.64,108.37v6.52h-.69l-4.61-5.46h-.06v5.46h-.71v-6.52h.69l4.63,5.47h.06v-5.47h.7Z"/>
      <path class="cls-1" d="M234.04,114.89v-6.52h.71v2.99h4.43v-2.99h.71v6.52h-.71v-2.99h-4.43v2.99h-.71Z"/>
      <path class="cls-1" d="M249.52,111.63c0,.68-.15,1.27-.44,1.77-.29.5-.69.89-1.2,1.16-.51.28-1.09.41-1.75.41s-1.24-.14-1.75-.41c-.51-.27-.91-.66-1.19-1.16-.29-.5-.43-1.09-.43-1.77s.14-1.27.43-1.77c.29-.5.69-.89,1.2-1.17.51-.27,1.09-.41,1.75-.41s1.24.14,1.75.41c.51.28.91.66,1.2,1.17.29.5.44,1.09.44,1.77ZM248.82,111.63c0-.58-.12-1.08-.35-1.5s-.55-.74-.96-.96c-.4-.22-.86-.33-1.38-.33s-.97.11-1.37.33c-.4.22-.72.54-.96.95-.24.42-.35.92-.35,1.5s.12,1.08.35,1.5c.23.42.55.74.96.96.4.22.86.33,1.38.33s.97-.11,1.38-.33c.41-.22.73-.54.96-.96s.35-.92.35-1.5Z"/>
      <path class="cls-1" d="M257.59,108.37h.71v4.32c0,.44-.12.84-.37,1.19-.25.35-.6.62-1.04.82-.44.2-.96.3-1.55.3s-1.1-.1-1.54-.3c-.45-.2-.79-.48-1.04-.82s-.37-.74-.37-1.19v-4.32h.71v4.27c0,.35.09.65.28.92.19.27.45.48.78.64.34.16.73.23,1.18.23s.85-.08,1.19-.23c.34-.16.6-.37.78-.64.18-.27.28-.58.28-.92v-4.27Z"/>
      <path class="cls-1" d="M265.77,110c-.04-.36-.23-.65-.58-.87-.34-.21-.77-.32-1.28-.32-.36,0-.68.05-.96.16-.28.1-.49.25-.65.43-.16.18-.23.39-.23.63,0,.17.04.32.13.45.09.13.21.24.36.33.15.09.32.17.5.24.18.07.37.12.56.17l.82.2c.25.06.5.13.75.22.25.09.48.2.68.34.21.14.37.3.5.49s.19.43.19.7c0,.35-.11.66-.32.94-.22.28-.53.5-.93.66-.4.16-.89.24-1.45.24-.53,0-.99-.07-1.38-.22-.39-.15-.7-.35-.92-.61s-.35-.56-.38-.91h.73c.02.26.13.47.31.65.18.18.41.31.69.41.28.09.6.14.95.14.39,0,.74-.05,1.04-.16.3-.11.54-.26.72-.46s.26-.43.26-.69c0-.22-.07-.41-.21-.56-.14-.15-.33-.28-.57-.38-.24-.1-.53-.19-.85-.27l-.93-.23c-.61-.15-1.09-.36-1.43-.63s-.51-.61-.51-1.03c0-.35.11-.66.34-.92.23-.27.53-.47.92-.62.39-.15.82-.22,1.3-.22s.92.07,1.29.22c.37.15.67.35.89.61.22.26.34.56.35.89h-.69Z"/>
      <path class="cls-1" d="M269.44,114.89v-6.52h4.53v.53h-3.82v2.45h3.58v.54h-3.58v2.46h3.89v.53h-4.61Z"/>
    </g>
  </g>
  <g>
    <g>
      <path class="cls-1" d="M88.16,114.39v.19l-1.32-.11c-2.42-.23-4.36.23-6.65,1.01-1.39.47-3.06.11-4.52-.36l-3.93-1.28c-.57-.19-1.17-.25-1.75-.32-.8-.1-2.4.13-3.22.4l-2.32.77c-2.79.92-4.94,1.65-8.07,1.36-1.34-.12-2.6-.45-3.86-.89s-2.41-.69-3.73-.56l-4.46.46-1.69.05-1.12-.05c-2.81-.12-6.01-1.85-8.6-.69-2.32,1.04-4.09-.25-6.49-.32-1.41-.04-2.67.43-3.96.86-.66.22-1.42-.06-2.08-.16l-1.24-.15v-.19l2.64.45c.93.17,2.95-1.68,7.17-.55,1.08.29,2.3.5,3.37.12s2.01-.7,3.16-.58c1.03.1,2.05.31,3.06.56,1.78.45,3.77.69,5.59.53l.84-.07,2.52-.29,1.31-.11,1.14-.02c2.04-.03,4.44,1.83,8.83,1.47,1.97-.16,3.8-.7,5.63-1.37,2.6-.95,4.88-1.66,7.59-.77l3.59,1.17c.81.26,1.65.48,2.49.57l.79.08c.8.08,3.15-1.07,5.65-1.26h2.23s1.4.07,1.4.07Z"/>
      <path class="cls-1" d="M83.46,117.77v.16l-1.78.23-1.7.3h-2.47s-.65-.05-.65-.05c-1.99-.19-3.89-.62-5.82-1.1-1.7-.42-3.11-.73-4.89-.53-.83.1-1.61.26-2.4.51l-3.4,1.1c-1.32.43-3.48.62-4.83.47l-.72-.08c-1.69-.28-3.31-.64-5.02-.75-1.04-.07-2.06-.04-3.12-.02l-.65.07-3.7.5c-1.71.23-4.16-.27-5.9-.81-2.14-.66-4.29-.83-6.5-.5l-3.23.48-.72.07-.9.07-1.2.02v-.16h1.78s.64-.08.64-.08l4.03-.57,1.13-.1c1.59-.14,3.51.2,5.08.67,1.81.54,3.85.96,5.71.79l.65-.06,2.67-.38.79-.09.9-.07c.6-.05,1.23-.04,1.83,0l.82.06c1.59.11,3.11.43,4.67.7l1.39.16c3.68.42,7.05-1.82,10.22-2.11,1.73-.16,2.96.05,4.59.45,2.52.61,7.14,1.63,9.42,1.21l2.5-.46.81-.1Z"/>
      <path class="cls-1" d="M90.83,110.68v.2c-.91.08-1.92.25-2.84-.08-2.76-.99-4.14.74-6.01.74h-4.2s-.92-.06-.92-.06c-1.87-.14-3.67-.44-5.5-.83-1.73-.37-3.32-.17-4.85.73-2.09,1.22-3.72,1.89-6.22,1.68-.99-.08-1.92-.41-2.85-.75l-2.99-1.11c-1.67-.62-3.32-.49-5.01-.03l-3.02.8c-1.63.44-3.26.43-4.92.11-1.28-.24-2.51-.34-3.83-.3l-.8-.08c-1.63,0-3.18-.04-4.75-.49s-3.16-.78-4.82-.89c-1.33-.09-2.64-.14-3.98-.02l-1.1.1-3.84.39-1.9.08v-.2c.63,0,1.32.03,1.98-.04l4.64-.47,1.02-.07c2.44-.17,5.35.21,7.73.88,1.23.35,2.41.53,3.68.56l3.15.07,1.12.08,2.71.37,1.19.09,1.3-.1c2-.15,4.48-1.28,6.13-1.38,1.36-.08,2.64.06,3.89.54l2.47.95c3.32,1.28,5.57,1.02,8.65-.75.87-.5,1.77-.95,2.78-1.02,2.47-.17,4.86.75,7.43.9l1.51.09,1.01.06h2.66c2.13-.01,3.29-1.56,6.03-.93l1.33.31c.33.07.69.02,1.03-.02l.9-.14Z"/>
    </g>
    <g>
      <path class="cls-1" d="M83.18,47.53h-.55v.59c0,.31,0,.62,0,.94v.14h.56v-.14c0-.51,0-1.02-.02-1.53Z"/>
      <path class="cls-1" d="M77.34,101.03v5.34h14.44v.56H17.39v-.56h14.47v-5.34h-14.47v-.56h8.57v-10.54h.57v10.54h5.33v-3.8h.56v9.7h44.35v-5.34h-.04v-8.41s.21.09.21.09c.08.04.17.08.26.11l.09.04.03.11v7.51s5.32,0,5.32,0v-52.35c0,.31,0,.62,0,.94v.14h.56v-.14c0-.51,0-1.02-.02-1.53h.02v52.94h8.57v.56h-14.44Z"/>
      <path class="cls-1" d="M76.76,72.79v11.49s0,1.99,0,1.99l.24-.23c.09-.08.18-.15.26-.22l.06-.04v-13s-.56,0-.56,0ZM77.33,47.92c0-.09,0-.17,0-.26,0-.08,0-.17,0-.25-.35-11.64-4.6-25.36-22.73-25.36s-22.42,15.77-22.73,25.36c0,.09-.01.17-.01.25,0,.09,0,.17,0,.26-.01.38-.02.76-.02,1.13v8.83s0,.14,0,.14h.57v-8.97c0-.45,0-.91.02-1.39.26-9.36,3.48-25.05,22.17-25.05s21.88,13.62,22.17,25.05c.01.47.02.93.02,1.39v15s.56,0,.56,0v-15c.01-.38,0-.75,0-1.13Z"/>
      <rect class="cls-1" x="25.96" y="48.91" width=".56" height="20.61"/>
      <path class="cls-1" d="M83.18,47.53c-.21-9.47-2.31-17.02-6.27-22.47-4.83-6.62-12.34-9.98-22.33-9.98s-17.24,3.36-22.14,9.98c-4.22,5.71-6.46,13.96-6.48,23.85v.28h.56v-.28c0-.33,0-.66.01-.99,0-.17,0-.33.01-.5.33-12.58,4.67-31.78,28.03-31.78,9.8,0,17.16,3.28,21.87,9.75,3.88,5.32,5.95,12.72,6.16,22.02,0,.17.01.33.01.5,0,.07,0,.13,0,.2,0,.31,0,.62,0,.94v.14h.56v-.14c0-.51,0-1.02-.02-1.53ZM26.26,48.05v-.18s0,.03,0,.05c0,.04,0,.09,0,.13ZM76.68,25.23c-.22-.3-.44-.59-.66-.87.23.29.45.58.67.87.13.18.26.36.38.54-.13-.18-.25-.36-.38-.54Z"/>
      <polygon class="cls-1" points="82.77 47.92 76.9 47.92 76.9 47.41 82.76 47.41 82.77 47.92"/>
      <polygon class="cls-1" points="32.27 47.92 26.12 47.92 26.11 47.41 32.27 47.41 32.27 47.92"/>
    </g>
    <g>
      <path class="cls-2" d="M29.23,76.59c-.15-.02-.29-.11-.36-.25l-.09-.18c-.11-.21-.04-.47.15-.6l.15-.11c.08-.06.17-.08.27-.08.12,0,.23.04.32.13l.1.1c.18.17.2.46.03.65l-.17.19c-.09.1-.22.16-.35.16-.02,0-.04,0-.06,0Z"/>
      <path class="cls-2" d="M29.36,75.84l-.15.11.09.18.17-.19-.1-.1Z"/>
      <path class="cls-2" d="M29.23,76.59c-.15-.02-.29-.11-.36-.25l-.09-.18c-.11-.21-.04-.47.15-.6l.15-.11c.08-.06.17-.08.27-.08.12,0,.23.04.32.13l.1.1c.18.17.2.46.03.65l-.17.19c-.09.1-.22.16-.35.16-.02,0-.04,0-.06,0Z"/>
      <path class="cls-2" d="M29.36,75.84l-.15.11.09.18.17-.19-.1-.1Z"/>
      <path class="cls-2" d="M29.23,76.59c-.15-.02-.29-.11-.36-.25l-.09-.18c-.11-.21-.04-.47.15-.6l.15-.11c.08-.06.17-.08.27-.08.12,0,.23.04.32.13l.1.1c.18.17.2.46.03.65l-.17.19c-.09.1-.22.16-.35.16-.02,0-.04,0-.06,0Z"/>
      <polygon class="cls-2" points="29.46 75.94 29.29 76.13 29.2 75.95 29.36 75.84 29.46 75.94"/>
      <path class="cls-2" d="M75.56,69.26c-1.64,1.47-3.64,2.27-5.79,1.31-.09-2.06,1.57-5.36,3.24-6.46,1.83-1.21,3.73-2.83,2.39-4-1.23.05-1.77,1.8-2.85,1.64-.27-.04-.71-.72-.66-1.01l.69-3.94c.04-.25-.31-.87-.55-.89-.21-.02-.68.27-.8.5-1.84,3.29.13,7.05-2.76,10.13-.61-.41-1.09-1.12-1.16-1.78l-.27-2.62c-.03-.3-.47-.84-.76-.87-1.04-.13-1.42,1.88-.6,4.18.56,1.58,1.3,3.24.8,4.95-.34,1.15-1.5,1.91-2.16,2.85l-1.58,2.28c-.26.38-1.14-.03-1.3-.48l-.86-2.52c-.11-.32-.76-.78-1.08-.68-1.17.37-.79,2.73.44,4.64.86,1.33,1.34,2.67,1.47,4.25.22,2.65-.01,5.29-1.51,7.63-.81-1.64-1.22-3.3-1.6-5.1-.12-.58-.95-1.52-1.48-.98-.95.99-.44,2.71.07,3.85,1.36,3.06,1.17,7.24-1.22,9.25l-2.05-3.1c-2.01-3.03-2.95-6.64-2.75-10.37.2-3.51,1.09-7.03,2.83-10.06.76-1.32,1.57-2.41,2.14-3.86.63-1.63,1.83-3.15,3.21-4.2,1.94-1.47,3.12-3.42,4.17-5.59.68-1.4,1.48-3.1.6-3.57-1.85-1.01-3.56,7.01-6.03,6.28-.28-.08-.55-.68-.55-1.04l.06-6.67c.24-3,1.16-5.53,2.44-8.19.64-1.32.65-3,.91-4.42l.58-3.24c.05-.29-.37-.92-.64-1.01-.27-.09-1.03.28-1.09.58l-.79,3.39c-.3,1.3-.67,2.52-1.58,3.56-1.12-.42-1.49-1.49-1.6-2.59l-.23-2.2c-.03-.27-.61-.8-.88-.73-1.39.38-1.14,4.27.54,7.16.88,1.52.92,3.42.56,5.06l-.6,2.71c-.33,1.48-1.03,3.05-.9,4.61.39,4.49.26,6.77-2.85,10.67-.36-.45-.52-.87-.57-1.38-.22-2.05-.85-3.9-2.07-5.49-1.55-2.04-1.52-4.53-.58-6.83,1.28-3.13,1.1-7.36-.38-7.33-.25,0-.79.46-.8.72l-.11,1.92c-.07,1.37-.11,2.6-1.28,3.6l-2.16-2.88c-1.12-1.49-1.09-4.95-3.07-5.13-1.2-.11-.71,3.3.96,5.88l2.52,3.88c.49.74.53,1.74.16,2.54-1.12-.63-2.28-1.24-3.19-2.13l-3.35-3.29c-.21-.21-1.06-.51-1.27-.3-.33.31-.29,1.44,0,1.74l2.95,3.03c.95.98,1.71,1.97,2.88,2.69,3.66,2.24,4.74,4.92,5.52,9,.53,2.79.73,5.46-.25,8.22-.42,1.18-.44,2.52-.39,3.8l.21,4.81c.04.98-3.61-1.03-3.62-5.26,0-1.02-.21-2.45-.94-3.21-4.69-4.85-1.04-8.52-2.28-12.74-.07-.26-.6-.67-.87-.68-.27,0-.82.51-.84.78l-.21,2.62c-.03.32-.48.83-.76,1.06l-2.84-2.28c-1.32-1.06-1.15-4.48-2.33-6.47-.17-.28-.83-.54-1.07-.38-.21.13-.55.77-.49,1.04l.94,3.63c.15.6.17,1.26-.12,1.74-2.09,0-3.88-2.56-4.62-1.22-.79,1.44,2.89,3.17,5.28,3.89,1.13.35,2.12,1.07,3.05,1.75,3.49,2.58,1.48,5.17,3.56,7.9.78,1.03,1.12,2.14.81,3.41-2.55-.57-4.89-1.38-7-2.69-1.44-.9-2.32-2.16-2.95-3.68-.8-1.96-2.62-3.85-3.4-3.1-1.46,1.4,2.73,4.26,2.28,6.01-2.08.51-4.38-1.03-4.88.29-.13.33.33,1.07.72,1.21,3,1.04,5.3.29,7.28,1.55,2.25,1.42,4.44,2.65,6.84,3.73,2.67,1.21,4.68,3.06,6.04,5.66.98,1.87,4.94,2.59,5.41,7.07l-3.93-2.18c-1.03-.57-1.9-.91-3.16-.94-2.4-.05-4.79-1.89-5.11-4.3-.15-1.14-.12-2.14-.83-3.09-.21-.27-.86-.46-1.14-.34-1.18.51.43,2.57-.48,4.29-3.82-.67-5.29-4-9.26-5.25-.3-.1-.99.19-1.13.45-.47.86.67,1.69,1.99,2.32,1.64.78,4.24,2.35,4.22,3.23,0,.15-.32.55-.49.59l-2.43.55c-.35.08-.88.59-.84.9.12,1.02,2.24,1.09,4.26.34,2.8-1.04,5.17.09,7.47,2.04-.23.4-.7.83-1.12.92l-2.17.49c-.27.06-.67.59-.69.85-.05,1.09,2.35,1.29,4.56.19,1.09-.54,2.35-1.09,3.63-.85,3.11.58,7.23,3.33,6.84,5.96-.04.25-.12.51-.24.75-.2.39-.51.69-.87.93-1.29.87-3.22.99-2.69,1.61.12.14.54.4.74.4l2.19.03,1.47.02c1.18.24,2.17.61,3.31.61.11,0,.22,0,.33-.01l4.93-.33c.32-.02.88-.74.83-1.04-.58-.85-1.54-1.95-1.84-2.95-.06-.19-.11-.38-.14-.57.69-.4,1.4-.72,2.08-.93,1.25-.38,2.56.02,3.7.43,2.32.84,4.68.37,4.5-.7-.04-.26-.5-.74-.78-.77l-2.21-.23c-.44-.05-.94-.42-1.22-.79,2.07-2.2,4.29-3.59,7.19-2.88,2.09.51,4.19.21,4.19-.82,0-.31-.59-.76-.94-.79l-2.48-.27c-.18-.02-.54-.38-.55-.53-.12-.87,2.29-2.73,3.82-3.69,1.25-.78,2.29-1.73,1.72-2.54-.18-.24-.89-.45-1.17-.32-3.81,1.7-4.88,5.18-8.6,6.28-1.1-1.6.27-3.83-.97-4.21-.29-.09-.92.17-1.09.46-.6,1.02-.45,2.02-.47,3.16-.05,2.43-2.21,4.54-4.58,4.86-.63.09-1.16.25-1.65.47.13-.34.29-.68.46-1.01,1.89-3.69,3.83-7.3,4.61-11.47.85-4.59-.51-8.85,3.11-12.04,2.61-2.3,5.93-.33,7.97-1.98,1.32-1.07,2.53-2.05,4.11-2.73.62-.27,1.24-.75,1.49-1.44.36-1.01-1.82-1.76-4.72.84ZM29.29,76.13l-.09-.18.15-.11.1.1-.17.19Z"/>
    </g>
  </g>
</svg>