<?xml version="1.0" encoding="UTF-8"?>
<svg id="Capa_1" data-name="Capa 1" xmlns="http://www.w3.org/2000/svg" viewBox="0 0 216.51 204.93">
  <defs>
    <style>
      .cls-1 {
        fill: #ce5f45;
      }
    </style>
  </defs>
  <path class="cls-1" d="M58.65,103.57c-.31-.04-.57-.23-.72-.5l-.18-.35c-.22-.42-.09-.93.3-1.2l.31-.21c.16-.11.35-.17.53-.17.23,0,.46.09.64.26l.2.19c.37.35.39.92.06,1.3l-.33.37c-.18.2-.44.32-.7.32-.04,0-.08,0-.12,0Z"/>
  <path class="cls-1" d="M58.89,102.08l-.31.21.18.35.33-.37-.2-.19Z"/>
  <path class="cls-1" d="M58.65,103.57c-.31-.04-.57-.23-.72-.5l-.18-.35c-.22-.42-.09-.93.3-1.2l.31-.21c.16-.11.35-.17.53-.17.23,0,.46.09.64.26l.2.19c.37.35.39.92.06,1.3l-.33.37c-.18.2-.44.32-.7.32-.04,0-.08,0-.12,0Z"/>
  <path class="cls-1" d="M58.89,102.08l-.31.21.18.35.33-.37-.2-.19Z"/>
  <path class="cls-1" d="M58.65,103.57c-.31-.04-.57-.23-.72-.5l-.18-.35c-.22-.42-.09-.93.3-1.2l.31-.21c.16-.11.35-.17.53-.17.23,0,.46.09.64.26l.2.19c.37.35.39.92.06,1.3l-.33.37c-.18.2-.44.32-.7.32-.04,0-.08,0-.12,0Z"/>
  <polygon class="cls-1" points="59.09 102.27 58.76 102.64 58.58 102.29 58.89 102.08 59.09 102.27"/>
  <path class="cls-1" d="M150.91,88.96c-3.27,2.93-7.24,4.52-11.54,2.6-.17-4.11,3.12-10.67,6.45-12.86,3.65-2.41,7.42-5.64,4.77-7.97-2.45.11-3.52,3.59-5.68,3.26-.54-.08-1.41-1.44-1.32-2.01l1.38-7.84c.08-.5-.62-1.73-1.1-1.77-.41-.03-1.35.54-1.59.99-3.66,6.56.27,14.03-5.5,20.17-1.22-.81-2.18-2.23-2.31-3.55l-.54-5.21c-.06-.6-.93-1.67-1.51-1.74-2.08-.25-2.82,3.75-1.19,8.33,1.11,3.14,2.58,6.45,1.59,9.85-.67,2.29-2.99,3.8-4.31,5.68l-3.15,4.53c-.52.75-2.27-.05-2.58-.96l-1.72-5.01c-.21-.64-1.52-1.56-2.15-1.36-2.32.73-1.58,5.45.87,9.25,1.71,2.65,2.66,5.31,2.92,8.47.44,5.28-.02,10.54-3.01,15.2-1.61-3.27-2.42-6.57-3.18-10.16-.24-1.15-1.89-3.04-2.94-1.94-1.9,1.96-.87,5.39.14,7.67,2.71,6.1,2.32,14.43-2.43,18.42l-4.09-6.17c-4-6.03-5.88-13.22-5.48-20.66.39-6.98,2.18-13.99,5.63-20.03,1.52-2.63,3.13-4.81,4.27-7.7,1.26-3.24,3.65-6.27,6.4-8.36,3.86-2.92,6.21-6.81,8.31-11.13,1.36-2.78,2.95-6.17,1.19-7.11-3.69-2.01-7.09,13.96-12.02,12.5-.55-.16-1.1-1.36-1.09-2.07l.12-13.29c.48-5.98,2.3-11.02,4.86-16.3,1.27-2.63,1.29-5.97,1.8-8.81l1.16-6.44c.1-.57-.74-1.84-1.27-2.02-.54-.18-2.05.56-2.18,1.15l-1.57,6.75c-.61,2.59-1.33,5.02-3.15,7.08-2.23-.84-2.96-2.96-3.2-5.16l-.47-4.38c-.05-.54-1.22-1.6-1.75-1.45-2.76.75-2.27,8.5,1.08,14.26,1.76,3.03,1.84,6.81,1.11,10.08l-1.2,5.4c-.66,2.95-2.05,6.08-1.78,9.18.77,8.95.51,13.48-5.68,21.25-.72-.89-1.03-1.74-1.14-2.75-.44-4.09-1.7-7.76-4.12-10.93-3.09-4.05-3.03-9.01-1.15-13.61,2.55-6.23,2.19-14.65-.76-14.61-.5.01-1.57.91-1.6,1.44l-.22,3.82c-.15,2.73-.21,5.18-2.55,7.18l-4.31-5.73c-2.24-2.97-2.18-9.85-6.11-10.21-2.39-.22-1.42,6.58,1.92,11.72l5.02,7.72c.97,1.46,1.05,3.46.32,5.06-2.23-1.26-4.54-2.46-6.35-4.24l-6.67-6.55c-.42-.42-2.11-1.01-2.54-.59-.65.63-.58,2.87,0,3.47l5.88,6.04c1.9,1.95,3.4,3.92,5.73,5.36,7.28,4.47,9.45,9.8,10.99,17.92,1.05,5.56,1.45,10.87-.49,16.38-.83,2.35-.88,5.02-.77,7.56l.41,9.59c.08,1.94-7.19-2.06-7.22-10.47,0-2.04-.42-4.88-1.88-6.39-9.33-9.66-2.08-16.97-4.54-25.38-.15-.51-1.2-1.33-1.73-1.35-.54-.01-1.62,1.01-1.68,1.55l-.42,5.22c-.05.64-.96,1.66-1.51,2.11l-5.66-4.53c-2.62-2.11-2.28-8.92-4.64-12.89-.33-.55-1.65-1.08-2.12-.76-.41.27-1.1,1.53-.97,2.08l1.88,7.23c.31,1.19.34,2.52-.24,3.47-4.16,0-7.72-5.11-9.19-2.43-1.57,2.87,5.75,6.31,10.51,7.74,2.25.69,4.22,2.13,6.07,3.49,6.95,5.14,2.94,10.3,7.08,15.74,1.55,2.05,2.23,4.27,1.61,6.79-5.07-1.14-9.74-2.75-13.94-5.35-2.87-1.78-4.62-4.3-5.87-7.32-1.6-3.91-5.22-7.66-6.76-6.18-2.91,2.79,5.43,8.48,4.54,11.96-4.15,1.02-8.73-2.06-9.72.58-.25.66.66,2.13,1.43,2.41,5.98,2.07,10.56.58,14.49,3.08,4.48,2.83,8.84,5.28,13.63,7.43,5.31,2.41,9.32,6.09,12.03,11.26,1.95,3.73,9.84,5.16,10.77,14.07l-7.83-4.34c-2.06-1.14-3.79-1.8-6.29-1.87-4.78-.11-9.53-3.77-10.18-8.57-.31-2.26-.23-4.27-1.66-6.15-.41-.54-1.71-.91-2.27-.67-2.36,1.02.85,5.13-.96,8.53-7.61-1.33-10.53-7.96-18.45-10.46-.59-.19-1.96.38-2.25.9-.94,1.72,1.33,3.36,3.97,4.63,3.26,1.56,8.45,4.68,8.41,6.43,0,.31-.64,1.1-.98,1.18l-4.84,1.1c-.69.16-1.75,1.18-1.68,1.78.23,2.04,4.47,2.17,8.49.67,5.57-2.07,10.29.17,14.88,4.05-.47.8-1.39,1.65-2.24,1.84l-4.32.98c-.54.13-1.34,1.18-1.37,1.7-.1,2.18,4.67,2.57,9.08.37,2.18-1.08,4.67-2.17,7.23-1.7,6.2,1.15,14.39,6.62,13.62,11.88-.07.5-.23,1.01-.48,1.5-.39.77-1.01,1.38-1.73,1.86-2.57,1.74-6.41,1.96-5.36,3.21.23.29,1.08.8,1.48.8l4.35.05,2.92.03c2.35.48,4.33,1.22,6.59,1.21.21,0,.44-.01.65-.02l9.81-.66c.64-.04,1.76-1.46,1.66-2.07-1.16-1.7-3.06-3.88-3.66-5.88-.12-.38-.21-.76-.28-1.14,1.38-.8,2.79-1.43,4.14-1.85,2.49-.75,5.09.03,7.38.86,4.63,1.68,9.32.74,8.97-1.4-.08-.52-1-1.48-1.55-1.54l-4.41-.47c-.87-.1-1.88-.84-2.43-1.57,4.12-4.38,8.54-7.15,14.32-5.73,4.16,1.02,8.35.41,8.35-1.63.01-.62-1.17-1.51-1.87-1.58l-4.94-.54c-.35-.04-1.07-.75-1.1-1.06-.24-1.73,4.55-5.43,7.61-7.36,2.48-1.55,4.55-3.45,3.42-5.05-.35-.48-1.77-.89-2.34-.64-7.59,3.39-9.72,10.31-17.13,12.5-2.19-3.18.53-7.63-1.93-8.37-.58-.17-1.83.34-2.18.92-1.2,2.04-.89,4.02-.94,6.29-.1,4.84-4.39,9.03-9.13,9.68-1.26.18-2.31.49-3.28.93.27-.68.58-1.36.92-2.02,3.77-7.35,7.62-14.54,9.17-22.83,1.7-9.15-1.01-17.63,6.19-23.97,5.19-4.59,11.8-.65,15.88-3.94,2.63-2.13,5.03-4.09,8.18-5.43,1.24-.54,2.47-1.5,2.97-2.88.71-2.02-3.63-3.5-9.4,1.67ZM58.76,102.64l-.18-.35.31-.21.2.19-.33.37Z"/>
</svg>